<svg width="301" height="301" viewBox="0 0 301 301" fill="none" xmlns="http://www.w3.org/2000/svg">
<path d="M114.022 117.789V52.886L155.762 110.437C165.829 124.591 179.182 112.898 171.802 101.616C169.553 98.6314 155.525 79.1102 153.345 76.2833C146.176 66.8816 139.97 58.6018 134.727 51.4437C129.484 44.2856 125.685 38.5699 123.331 34.2964C120.335 34.5101 117.607 34.7237 115.146 34.9374C112.792 35.0442 110.705 35.0977 108.886 35.0977C108.137 35.0977 106.158 35.0442 102.948 34.9374C99.8449 34.7237 95.4579 34.5101 89.7869 34.2964C89.3589 34.7237 89.1449 35.7387 89.1449 37.3412C89.2519 38.9438 89.5194 39.7451 89.9474 39.7451C91.0174 39.7451 92.4619 39.9053 94.2809 40.2258C96.2069 40.5463 98.0259 40.9203 99.7379 41.3476C101.45 41.775 102.413 42.2557 102.627 42.7899C103.804 44.9267 104.392 48.8262 104.392 54.4886V117.309C104.392 124.146 103.857 128.633 102.787 130.77C102.252 131.838 101.129 132.747 99.4169 133.494C97.8119 134.135 96.0999 134.67 94.2809 135.097C92.4619 135.417 90.9104 135.578 89.6264 135.578C89.1984 135.578 88.9844 136.432 88.9844 138.142C88.9844 139.531 89.1984 140.439 89.6264 140.866C90.5894 140.759 92.1944 140.652 94.4414 140.546C96.7954 140.439 99.2564 140.332 101.824 140.225C104.499 140.011 106.8 139.905 108.726 139.905L128.788 140.866C129.002 140.332 129.056 139.317 128.949 137.821C128.949 136.326 128.788 135.578 128.467 135.578C127.611 135.578 126.167 135.364 124.134 134.937C122.208 134.509 120.335 133.975 118.516 133.334C116.804 132.586 115.734 131.785 115.306 130.93C114.45 128.366 114.022 123.986 114.022 117.789Z" fill="#EBC80C"/>
<path d="M138.89 119.462C148.135 142.436 166.709 141.987 173.343 141.987C179.442 141.987 185.06 140.758 190.196 138.301C195.439 135.737 199.665 132.211 202.875 127.724C207.918 111.051 202.981 104.686 187.788 85.4105C184.578 81.338 181.416 78.8465 172.059 64.6927C166.512 57.2377 165.392 43.5647 174.306 41.0262C178.158 41.0262 181.582 42.148 184.578 44.3916C187.681 46.6352 190.196 49.4129 192.122 52.7249C194.048 55.93 195.225 59.1885 195.653 62.5004C195.867 63.462 197.418 63.9427 200.307 63.9427C201.484 63.9427 202.126 63.462 202.233 62.5004C202.233 53.2056 201.591 44.9792 200.307 37.8211C196.562 36.9664 193.834 36.3254 192.122 35.8981C190.41 35.4707 188.965 35.0968 187.788 34.7763C186.611 34.4558 184.899 34.1353 182.652 33.8148C180.405 33.4942 177.784 33.334 174.788 33.334C169.224 33.334 163.927 34.616 158.898 37.1801C153.869 39.7442 147.313 53.2056 161.283 74.9491C162.888 75.9106 171.31 88.6755 172.059 89.1028C172.059 89.1028 181.839 101.111 181.666 101.041C181.661 101.039 181.646 101.025 181.622 101C181.637 101.014 181.651 101.027 181.666 101.041C184.251 103.448 189.554 111.937 189.554 116.186C189.554 122.169 187.895 126.656 184.578 129.647C181.261 132.639 177.088 134.135 172.059 134.135C168.1 134.135 164.493 134.192 161.283 132.59C157.768 130.835 153.447 127.671 151.628 125C150.929 123.974 149.205 121.705 148.135 119.462C147.065 117.111 146.081 113.718 144.643 111.051C144.322 110.197 144.025 110.257 142.527 110.257C141.029 110.257 137.05 112.658 136.836 113.513C136.836 114.688 137.895 116.987 138.89 119.462Z" fill="#EBC80C"/>
<rect x="62.0951" y="4.03506" width="177.034" height="176.752" stroke="#EBC80C" stroke-width="7.86211"/>
<path d="M34.1787 237.011C33.5759 237.011 32.9542 236.578 32.3137 235.711L10.3856 204.628V228.76C10.3856 231.322 10.5175 233.074 10.7812 234.016C10.8566 234.166 11.1768 234.355 11.742 234.581C12.3448 234.769 12.9853 234.939 13.6635 235.09C14.3417 235.203 14.7938 235.259 15.0199 235.259C15.1329 235.259 15.1894 235.485 15.1894 235.937C15.2271 236.389 15.2083 236.71 15.1329 236.898C13.2491 236.823 11.7608 236.766 10.6682 236.729C9.61321 236.653 8.93503 236.615 8.63361 236.615L2.1343 236.898C2.02127 236.785 1.96476 236.502 1.96476 236.05C1.96476 235.523 2.02127 235.259 2.1343 235.259C2.51107 235.259 3.03855 235.203 3.71674 235.09C4.39493 234.939 5.03544 234.769 5.63828 234.581C6.24111 234.355 6.58021 234.129 6.65556 233.903C7.03233 232.998 7.22072 231.228 7.22072 228.59V206.38C7.22072 204.458 7.08885 203.045 6.82511 202.141C6.74975 201.915 6.41066 201.726 5.80782 201.576C5.24267 201.387 4.62099 201.237 3.94281 201.124C3.26462 201.011 2.73714 200.954 2.36037 200.954C2.20966 200.954 2.1343 200.709 2.1343 200.219C2.1343 199.767 2.20966 199.466 2.36037 199.315C3.82977 199.353 5.03544 199.39 5.97737 199.428C6.95698 199.428 7.67284 199.428 8.12497 199.428C9.10457 199.428 9.97115 199.428 10.7247 199.428C11.4782 199.39 12.1187 199.353 12.6462 199.315C13.3621 200.596 15.3025 203.554 18.4673 208.188C21.6699 212.785 26.1158 219.058 31.805 227.008C31.9181 226.367 31.9746 225.595 31.9746 224.691V207.114C31.9746 204.741 31.8427 203.083 31.579 202.141C31.5036 201.915 31.1645 201.708 30.5617 201.519C29.9589 201.331 29.3184 201.18 28.6402 201.067C27.962 200.916 27.4533 200.841 27.1142 200.841C26.9635 200.841 26.8882 200.615 26.8882 200.163C26.8882 199.748 26.9635 199.466 27.1142 199.315C27.4533 199.315 28.0185 199.353 28.8097 199.428C29.6009 199.466 30.4487 199.522 31.3529 199.598C32.2949 199.635 33.1049 199.654 33.7831 199.654C34.7627 199.654 36.006 199.598 37.5131 199.485C38.9825 199.372 39.8491 199.315 40.1129 199.315C40.1882 199.617 40.2259 199.899 40.2259 200.163C40.2259 200.615 40.1505 200.841 39.9998 200.841C39.7738 200.841 39.3028 200.916 38.5869 201.067C37.8711 201.218 37.1929 201.387 36.5524 201.576C35.9495 201.764 35.6104 201.953 35.5351 202.141C35.3844 202.744 35.2713 203.478 35.196 204.345C35.1206 205.212 35.083 206.229 35.083 207.397V228.873C35.083 231.209 35.1395 233.846 35.2525 236.785C35.1018 236.936 34.7439 237.011 34.1787 237.011ZM44.1368 236.898C43.9861 236.747 43.9107 236.465 43.9107 236.05C43.9107 235.523 43.9861 235.259 44.1368 235.259C44.5889 235.259 45.1729 235.165 45.8888 234.977C46.6046 234.788 47.0944 234.524 47.3582 234.185C47.7726 233.658 48.1871 232.961 48.6015 232.094C49.0536 231.228 49.5246 230.154 50.0144 228.873L59.8481 203.61C60.0742 203.045 60.2061 202.65 60.2438 202.423C60.3191 202.197 60.3756 202.009 60.4133 201.858C60.4887 201.67 60.6205 201.369 60.8089 200.954C61.0726 200.427 61.3364 200.012 61.6001 199.711C61.8639 199.409 62.2972 199.259 62.9 199.259L63.4086 199.428L74.7118 229.268C75.0509 230.135 75.3523 230.907 75.616 231.586C75.9174 232.264 76.1623 232.848 76.3507 233.338C76.5014 233.714 76.8217 234.053 77.3115 234.355C77.839 234.619 78.3665 234.845 78.8939 235.033C79.4591 235.184 79.8924 235.259 80.1938 235.259C80.3445 235.259 80.4199 235.617 80.4199 236.333C80.4199 236.408 80.401 236.502 80.3633 236.615C80.3633 236.691 80.3445 236.785 80.3068 236.898C78.423 236.823 76.9536 236.766 75.8986 236.729C74.8813 236.653 74.2785 236.615 74.0901 236.615L67.5343 236.898C67.3836 236.747 67.3082 236.446 67.3082 235.994C67.3459 235.504 67.4401 235.259 67.5908 235.259C68.0429 235.259 68.6081 235.165 69.2863 234.977C69.9645 234.788 70.3601 234.543 70.4731 234.242C70.5108 234.091 70.5296 233.94 70.5296 233.79C70.5673 233.639 70.5861 233.488 70.5861 233.338C70.5861 232.848 70.5296 232.283 70.4166 231.642C70.3035 230.964 70.1717 230.436 70.021 230.06L67.4778 223.052C67.3647 222.901 67.2517 222.826 67.1387 222.826C65.6693 222.713 64.2375 222.656 62.8435 222.656C61.8639 222.656 60.7712 222.694 59.5656 222.769C58.3976 222.807 57.0977 222.863 55.666 222.939L55.3834 223.108L52.9532 229.325C52.5765 230.267 52.3127 231.058 52.162 231.699C52.049 232.339 51.9925 232.848 51.9925 233.225C51.9925 233.752 52.1432 234.129 52.4446 234.355C52.7837 234.619 53.33 234.845 54.0835 235.033C54.8371 235.184 55.3834 235.259 55.7225 235.259C55.8355 235.259 55.892 235.485 55.892 235.937C55.9297 236.389 55.9109 236.71 55.8355 236.898L50.0144 236.615C48.9594 236.54 47.9233 236.559 46.906 236.672C45.9264 236.747 45.0034 236.823 44.1368 236.898ZM60.8654 219.943C62.5609 219.943 64.2752 219.887 66.0084 219.774L66.1779 219.491L61.6001 207.001L56.7398 219.604C56.7398 219.755 56.7775 219.83 56.8528 219.83C57.8324 219.868 58.6425 219.906 59.283 219.943C59.9612 219.943 60.4887 219.943 60.8654 219.943ZM91.5082 236.898C91.3575 236.747 91.2822 236.465 91.2822 236.05C91.2822 235.523 91.3575 235.259 91.5082 235.259C91.8473 235.259 92.2995 235.221 92.8646 235.146C93.4298 235.033 93.9573 234.882 94.4471 234.694C94.9369 234.506 95.2194 234.317 95.2948 234.129C95.4455 233.601 95.5397 232.923 95.5774 232.094C95.6527 231.265 95.6904 230.267 95.6904 229.099V208.64C95.6904 205.362 95.5209 203.422 95.1818 202.819C94.918 202.254 92.8835 201.971 89.0781 201.971C87.6463 201.971 86.5349 202.103 85.7436 202.367C84.9524 202.593 84.3496 203.064 83.9351 203.78C83.5207 204.496 83.1251 205.57 82.7483 207.001C82.673 207.19 82.4846 207.284 82.1831 207.284C81.5426 207.284 81.0905 207.152 80.8268 206.888L81.9006 198.806C82.7295 198.995 83.4642 199.146 84.1047 199.259C84.7452 199.372 85.3104 199.428 85.8002 199.428C88.5129 199.428 90.9054 199.466 92.9776 199.541C95.0499 199.617 96.783 199.654 98.1771 199.654C101.078 199.654 103.565 199.617 105.637 199.541C107.747 199.466 109.405 199.428 110.611 199.428C111.1 199.428 111.666 199.372 112.306 199.259C112.947 199.146 113.681 198.995 114.51 198.806L115.584 206.888C115.32 207.152 114.868 207.284 114.228 207.284C113.926 207.284 113.738 207.19 113.662 207.001C113.323 205.57 112.928 204.496 112.476 203.78C112.061 203.064 111.458 202.593 110.667 202.367C109.876 202.103 108.764 201.971 107.333 201.971C103.377 201.971 101.304 202.254 101.116 202.819C100.777 203.987 100.607 205.871 100.607 208.471V228.873C100.607 231.058 100.777 232.81 101.116 234.129C101.191 234.28 101.474 234.449 101.964 234.637C102.453 234.826 102.981 234.977 103.546 235.09C104.111 235.203 104.507 235.259 104.733 235.259C104.884 235.259 104.959 235.542 104.959 236.107C104.959 236.333 104.921 236.597 104.846 236.898C102.962 236.823 101.474 236.766 100.381 236.729C99.2886 236.653 98.5915 236.615 98.2901 236.615L91.5082 236.898ZM122.321 236.898C122.17 236.747 122.095 236.465 122.095 236.05C122.095 235.523 122.17 235.259 122.321 235.259C122.66 235.259 123.112 235.221 123.677 235.146C124.242 235.033 124.77 234.882 125.259 234.694C125.749 234.506 126.032 234.317 126.107 234.129C126.258 233.601 126.352 232.923 126.39 232.094C126.465 231.265 126.503 230.267 126.503 229.099V207.171C126.503 206.003 126.465 205.004 126.39 204.175C126.352 203.309 126.258 202.631 126.107 202.141C126.032 201.915 125.749 201.726 125.259 201.576C124.77 201.387 124.242 201.237 123.677 201.124C123.112 201.011 122.66 200.954 122.321 200.954C122.17 200.954 122.095 200.709 122.095 200.219C122.095 199.767 122.17 199.466 122.321 199.315L129.102 199.598C129.404 199.598 130.101 199.579 131.194 199.541C132.286 199.466 133.774 199.39 135.658 199.315C135.734 199.617 135.771 199.899 135.771 200.163C135.771 200.69 135.696 200.954 135.545 200.954C135.319 200.954 134.924 201.029 134.358 201.18C133.793 201.293 133.266 201.444 132.776 201.632C132.286 201.783 132.004 201.953 131.928 202.141C131.589 203.422 131.42 205.174 131.42 207.397V228.873C131.42 231.058 131.589 232.81 131.928 234.129C132.004 234.28 132.286 234.449 132.776 234.637C133.266 234.826 133.793 234.977 134.358 235.09C134.924 235.203 135.319 235.259 135.545 235.259C135.696 235.259 135.771 235.542 135.771 236.107C135.771 236.333 135.734 236.597 135.658 236.898C133.774 236.823 132.286 236.766 131.194 236.729C130.101 236.653 129.404 236.615 129.102 236.615L122.321 236.898ZM148.612 231.699C145.07 228.006 143.299 223.504 143.299 218.191C143.299 215.554 143.77 213.086 144.712 210.788C145.654 208.452 146.935 206.417 148.555 204.684C150.213 202.913 152.135 201.538 154.32 200.558C156.505 199.541 158.841 199.033 161.328 199.033C163.814 199.033 166.15 199.541 168.336 200.558C170.521 201.538 172.443 202.913 174.1 204.684C175.758 206.417 177.058 208.452 178 210.788C178.942 213.086 179.413 215.554 179.413 218.191C179.413 223.504 177.642 228.006 174.1 231.699C171.689 234.261 168.957 235.956 165.906 236.785C162.854 237.652 159.802 237.652 156.75 236.785C153.736 235.956 151.023 234.261 148.612 231.699ZM162.232 234.863C164.643 234.863 166.753 234.072 168.562 232.49C170.37 230.945 171.689 229.024 172.518 226.725C173.384 224.389 173.818 221.903 173.818 219.265C173.818 216.289 173.328 213.444 172.348 210.731C171.369 208.056 169.843 205.833 167.771 204.062C165.698 202.292 163.268 201.406 160.48 201.406C158.106 201.406 156.053 202.141 154.32 203.61C152.587 205.042 151.249 206.945 150.307 209.318C149.365 211.654 148.894 214.198 148.894 216.948C148.894 219.925 149.384 222.769 150.364 225.482C151.343 228.157 152.869 230.399 154.941 232.207C157.014 233.978 159.444 234.863 162.232 234.863ZM218.194 237.011C217.591 237.011 216.969 236.578 216.329 235.711L194.401 204.628V228.76C194.401 231.322 194.533 233.074 194.796 234.016C194.872 234.166 195.192 234.355 195.757 234.581C196.36 234.769 197 234.939 197.679 235.09C198.357 235.203 198.809 235.259 199.035 235.259C199.148 235.259 199.205 235.485 199.205 235.937C199.242 236.389 199.223 236.71 199.148 236.898C197.264 236.823 195.776 236.766 194.683 236.729C193.628 236.653 192.95 236.615 192.649 236.615L186.149 236.898C186.036 236.785 185.98 236.502 185.98 236.05C185.98 235.523 186.036 235.259 186.149 235.259C186.526 235.259 187.054 235.203 187.732 235.09C188.41 234.939 189.051 234.769 189.653 234.581C190.256 234.355 190.595 234.129 190.671 233.903C191.047 232.998 191.236 231.228 191.236 228.59V206.38C191.236 204.458 191.104 203.045 190.84 202.141C190.765 201.915 190.426 201.726 189.823 201.576C189.258 201.387 188.636 201.237 187.958 201.124C187.28 201.011 186.752 200.954 186.376 200.954C186.225 200.954 186.149 200.709 186.149 200.219C186.149 199.767 186.225 199.466 186.376 199.315C187.845 199.353 189.051 199.39 189.993 199.428C190.972 199.428 191.688 199.428 192.14 199.428C193.12 199.428 193.986 199.428 194.74 199.428C195.493 199.39 196.134 199.353 196.661 199.315C197.377 200.596 199.318 203.554 202.482 208.188C205.685 212.785 210.131 219.058 215.82 227.008C215.933 226.367 215.99 225.595 215.99 224.691V207.114C215.99 204.741 215.858 203.083 215.594 202.141C215.519 201.915 215.18 201.708 214.577 201.519C213.974 201.331 213.333 201.18 212.655 201.067C211.977 200.916 211.468 200.841 211.129 200.841C210.979 200.841 210.903 200.615 210.903 200.163C210.903 199.748 210.979 199.466 211.129 199.315C211.468 199.315 212.034 199.353 212.825 199.428C213.616 199.466 214.464 199.522 215.368 199.598C216.31 199.635 217.12 199.654 217.798 199.654C218.778 199.654 220.021 199.598 221.528 199.485C222.998 199.372 223.864 199.315 224.128 199.315C224.203 199.617 224.241 199.899 224.241 200.163C224.241 200.615 224.166 200.841 224.015 200.841C223.789 200.841 223.318 200.916 222.602 201.067C221.886 201.218 221.208 201.387 220.568 201.576C219.965 201.764 219.626 201.953 219.55 202.141C219.4 202.744 219.286 203.478 219.211 204.345C219.136 205.212 219.098 206.229 219.098 207.397V228.873C219.098 231.209 219.155 233.846 219.268 236.785C219.117 236.936 218.759 237.011 218.194 237.011ZM228.152 236.898C228.001 236.747 227.926 236.465 227.926 236.05C227.926 235.523 228.001 235.259 228.152 235.259C228.604 235.259 229.188 235.165 229.904 234.977C230.62 234.788 231.11 234.524 231.373 234.185C231.788 233.658 232.202 232.961 232.617 232.094C233.069 231.228 233.54 230.154 234.03 228.873L243.863 203.61C244.089 203.045 244.221 202.65 244.259 202.423C244.334 202.197 244.391 202.009 244.428 201.858C244.504 201.67 244.636 201.369 244.824 200.954C245.088 200.427 245.352 200.012 245.615 199.711C245.879 199.409 246.312 199.259 246.915 199.259L247.424 199.428L258.727 229.268C259.066 230.135 259.367 230.907 259.631 231.586C259.933 232.264 260.177 232.848 260.366 233.338C260.517 233.714 260.837 234.053 261.327 234.355C261.854 234.619 262.382 234.845 262.909 235.033C263.474 235.184 263.908 235.259 264.209 235.259C264.36 235.259 264.435 235.617 264.435 236.333C264.435 236.408 264.416 236.502 264.378 236.615C264.378 236.691 264.36 236.785 264.322 236.898C262.438 236.823 260.969 236.766 259.914 236.729C258.896 236.653 258.294 236.615 258.105 236.615L251.549 236.898C251.399 236.747 251.323 236.446 251.323 235.994C251.361 235.504 251.455 235.259 251.606 235.259C252.058 235.259 252.623 235.165 253.301 234.977C253.98 234.788 254.375 234.543 254.488 234.242C254.526 234.091 254.545 233.94 254.545 233.79C254.582 233.639 254.601 233.488 254.601 233.338C254.601 232.848 254.545 232.283 254.432 231.642C254.319 230.964 254.187 230.436 254.036 230.06L251.493 223.052C251.38 222.901 251.267 222.826 251.154 222.826C249.684 222.713 248.253 222.656 246.859 222.656C245.879 222.656 244.786 222.694 243.581 222.769C242.413 222.807 241.113 222.863 239.681 222.939L239.399 223.108L236.968 229.325C236.592 230.267 236.328 231.058 236.177 231.699C236.064 232.339 236.008 232.848 236.008 233.225C236.008 233.752 236.158 234.129 236.46 234.355C236.799 234.619 237.345 234.845 238.099 235.033C238.852 235.184 239.399 235.259 239.738 235.259C239.851 235.259 239.907 235.485 239.907 235.937C239.945 236.389 239.926 236.71 239.851 236.898L234.03 236.615C232.975 236.54 231.938 236.559 230.921 236.672C229.942 236.747 229.018 236.823 228.152 236.898ZM244.881 219.943C246.576 219.943 248.29 219.887 250.023 219.774L250.193 219.491L245.615 207.001L240.755 219.604C240.755 219.755 240.793 219.83 240.868 219.83C241.848 219.868 242.658 219.906 243.298 219.943C243.976 219.943 244.504 219.943 244.881 219.943ZM296.66 236.955C294.701 236.955 291.649 236.898 287.505 236.785C285.432 236.71 283.549 236.653 281.853 236.615C280.158 236.578 278.669 236.578 277.388 236.615L270.55 236.785C270.437 236.672 270.38 236.371 270.38 235.881C270.38 235.391 270.437 235.146 270.55 235.146C270.927 235.146 271.379 235.09 271.906 234.977C272.472 234.863 272.999 234.732 273.489 234.581C274.016 234.393 274.337 234.185 274.45 233.959C274.713 233.545 274.845 231.774 274.845 228.647V207.284C274.845 204.797 274.713 203.083 274.45 202.141C274.374 201.915 274.092 201.726 273.602 201.576C273.112 201.387 272.585 201.237 272.019 201.124C271.454 201.011 271.002 200.954 270.663 200.954C270.512 200.954 270.437 200.709 270.437 200.219C270.437 199.767 270.512 199.466 270.663 199.315C271.002 199.315 271.567 199.353 272.359 199.428C273.187 199.466 274.073 199.522 275.015 199.598C275.957 199.635 276.767 199.654 277.445 199.654C278.651 199.654 279.856 199.617 281.062 199.541C282.268 199.428 283.247 199.353 284.001 199.315C284.076 199.617 284.114 199.899 284.114 200.163C284.114 200.69 284.038 200.954 283.888 200.954C283.662 200.954 283.266 201.029 282.701 201.18C282.136 201.293 281.608 201.444 281.118 201.632C280.629 201.783 280.346 201.953 280.271 202.141C279.932 203.422 279.762 205.174 279.762 207.397V228.703C279.762 230.7 279.932 232.358 280.271 233.677C280.384 234.053 281.665 234.242 284.114 234.242H286.827C290.293 234.242 292.666 233.922 293.948 233.281C294.513 232.98 295.134 232.32 295.813 231.303C296.528 230.248 297.094 229.005 297.508 227.573C297.583 227.347 297.847 227.234 298.299 227.234C299.015 227.234 299.486 227.347 299.712 227.573C299.599 227.874 299.411 228.345 299.147 228.986C298.921 229.589 298.695 230.21 298.469 230.851C298.243 231.491 298.054 232.038 297.904 232.49C297.678 233.168 297.433 233.94 297.169 234.807C296.905 235.674 296.736 236.389 296.66 236.955Z" fill="#09101C"/>
<path d="M30.1536 290.881C29.7015 290.881 29.2211 290.844 28.7125 290.768C28.2038 290.712 27.78 290.646 27.4409 290.57C26.7439 290.439 26.2352 290.335 25.915 290.26C25.6135 290.165 25.331 290.099 25.0672 290.062C24.8223 288.894 24.6434 287.942 24.5303 287.208C24.4173 286.454 24.3608 285.908 24.3608 285.569C24.3608 285.456 24.5115 285.399 24.8129 285.399C25.152 285.399 25.3875 285.484 25.5194 285.654C26.1787 288.366 27.7423 289.723 30.2102 289.723C31.1521 289.723 31.9527 289.44 32.6121 288.875C33.2714 288.31 33.6011 287.509 33.6011 286.473C33.6011 286.134 33.5257 285.719 33.375 285.23C33.2432 284.74 32.9323 284.316 32.4425 283.958C32.0658 283.675 31.7549 283.468 31.51 283.336C31.2651 283.186 31.0202 283.054 30.7753 282.941C30.5304 282.809 30.2196 282.63 29.8428 282.404L28.7125 281.726C28.1285 281.368 27.5445 280.963 26.9605 280.511C26.3765 280.04 25.8867 279.493 25.4911 278.872C25.1143 278.25 24.9259 277.544 24.9259 276.752C24.9259 275.754 25.1803 274.887 25.6889 274.153C26.2164 273.399 26.8946 272.815 27.7235 272.401C28.5712 271.986 29.4849 271.779 30.4645 271.779C30.8789 271.779 31.2651 271.807 31.623 271.864C31.9998 271.901 32.3107 271.948 32.5556 272.005C33.1207 272.137 33.5163 272.24 33.7424 272.316C33.9873 272.391 34.317 272.476 34.7314 272.57C34.9575 273.55 35.0705 274.897 35.0705 276.611C35.0705 276.743 34.9763 276.809 34.7879 276.809C34.317 276.809 34.0721 276.715 34.0532 276.526C33.959 275.961 33.7518 275.405 33.4316 274.859C33.1113 274.313 32.678 273.861 32.1317 273.503C31.5854 273.126 30.9354 272.937 30.1819 272.937C29.4095 272.937 28.8067 273.088 28.3734 273.39C27.9401 273.672 27.6293 274.04 27.4409 274.492C27.2713 274.925 27.1866 275.386 27.1866 275.876C27.1866 276.347 27.2996 276.818 27.5257 277.289C27.7517 277.76 28.0814 278.156 28.5147 278.476C29.0987 278.909 29.6827 279.314 30.2667 279.691C30.8695 280.068 31.4912 280.454 32.1317 280.85C32.7345 281.226 33.3374 281.65 33.9402 282.121C34.543 282.573 35.0422 283.091 35.4379 283.675C35.8523 284.259 36.0595 284.938 36.0595 285.71C36.0595 286.708 35.7864 287.603 35.2401 288.395C34.6937 289.167 33.9685 289.779 33.0642 290.231C32.1788 290.665 31.2086 290.881 30.1536 290.881ZM39.7104 290.683C39.6351 290.608 39.5974 290.467 39.5974 290.26C39.5974 289.996 39.6351 289.864 39.7104 289.864C39.88 289.864 40.1061 289.845 40.3886 289.807C40.6712 289.751 40.935 289.676 41.1799 289.581C41.4248 289.487 41.566 289.393 41.6037 289.299C41.6791 289.035 41.7262 288.696 41.745 288.281C41.7827 287.867 41.8015 287.368 41.8015 286.784V275.82C41.8015 275.236 41.7827 274.737 41.745 274.322C41.7262 273.889 41.6791 273.55 41.6037 273.305C41.566 273.192 41.4248 273.098 41.1799 273.022C40.935 272.928 40.6712 272.853 40.3886 272.796C40.1061 272.74 39.88 272.711 39.7104 272.711C39.6351 272.711 39.5974 272.589 39.5974 272.344C39.5974 272.118 39.6351 271.967 39.7104 271.892L43.1014 272.033C43.2521 272.033 43.6006 272.024 44.1469 272.005C44.6932 271.967 45.4374 271.93 46.3793 271.892C46.417 272.043 46.4358 272.184 46.4358 272.316C46.4358 272.58 46.3981 272.711 46.3228 272.711C46.2098 272.711 46.0119 272.749 45.7294 272.824C45.4468 272.881 45.1831 272.956 44.9381 273.051C44.6932 273.126 44.552 273.211 44.5143 273.305C44.3447 273.945 44.26 274.821 44.26 275.933V286.671C44.26 287.763 44.3447 288.639 44.5143 289.299C44.552 289.374 44.6932 289.459 44.9381 289.553C45.1831 289.647 45.4468 289.723 45.7294 289.779C46.0119 289.836 46.2098 289.864 46.3228 289.864C46.3981 289.864 46.4358 290.005 46.4358 290.288C46.4358 290.401 46.417 290.533 46.3793 290.683C45.4374 290.646 44.6932 290.617 44.1469 290.599C43.6006 290.561 43.2521 290.542 43.1014 290.542L39.7104 290.683ZM59.1575 290.768C57.9142 290.768 56.7462 290.523 55.6535 290.033C54.5797 289.544 53.6284 288.875 52.7995 288.027C51.9894 287.179 51.3489 286.2 50.8779 285.088C50.4258 283.958 50.1998 282.762 50.1998 281.5C50.1998 280.162 50.4352 278.909 50.9062 277.741C51.3772 276.554 52.0365 275.518 52.8843 274.633C53.732 273.729 54.7116 273.022 55.8231 272.514C56.9534 272.005 58.1685 271.751 59.4683 271.751C60.8059 271.751 63.0382 272.175 66.1654 273.022L66.2785 276.526C66.2785 276.809 66.0807 276.95 65.6851 276.95C65.4967 276.95 65.3742 276.903 65.3177 276.809C64.8091 274.228 62.8875 272.937 59.5531 272.937C58.3098 272.937 57.1889 273.305 56.1904 274.04C55.192 274.774 54.4008 275.763 53.8168 277.007C53.2328 278.25 52.9408 279.625 52.9408 281.132C52.9408 282.168 53.1197 283.195 53.4777 284.212C53.8544 285.211 54.3631 286.115 55.0036 286.925C55.6629 287.716 56.4353 288.357 57.3207 288.847C58.225 289.318 59.1952 289.553 60.2313 289.553C61.9079 289.553 63.1324 289.346 63.9048 288.931C64.0367 288.875 64.1026 288.734 64.1026 288.508L64.0744 286.19V285.993C64.0744 284.787 63.999 283.977 63.8483 283.562C63.8106 283.431 63.6505 283.327 63.3679 283.252C63.0853 283.157 62.7839 283.082 62.4637 283.026C62.1434 282.969 61.8797 282.941 61.6724 282.941C61.5971 282.941 61.5594 282.818 61.5594 282.573C61.5594 282.347 61.5971 282.197 61.6724 282.121L65.3742 282.263L68.4261 282.121C68.4638 282.272 68.4826 282.404 68.4826 282.517C68.4826 282.799 68.4449 282.941 68.3696 282.941C68.2942 282.941 68.1435 282.969 67.9174 283.026C67.7102 283.082 67.4841 283.148 67.2392 283.223C67.0132 283.299 66.8436 283.374 66.7306 283.449C66.5422 283.581 66.448 284.212 66.448 285.343C66.448 285.531 66.448 285.738 66.448 285.964C66.4669 286.172 66.4857 286.388 66.5045 286.614L66.5328 287.377C66.5328 287.754 66.5987 288.084 66.7306 288.366C66.8625 288.649 66.9284 288.837 66.9284 288.931C66.9284 289.082 66.6929 289.252 66.222 289.44C65.9205 289.591 65.6662 289.694 65.459 289.751C65.2518 289.807 65.1105 289.855 65.0351 289.892C64.9409 289.93 64.7337 290.005 64.4135 290.118C64.0932 290.212 63.8295 290.278 63.6222 290.316C63.1136 290.41 62.6426 290.495 62.2093 290.57C61.7761 290.627 61.3239 290.674 60.853 290.712C60.382 290.749 59.8168 290.768 59.1575 290.768ZM87.2797 290.74C86.9783 290.74 86.6675 290.523 86.3472 290.09L75.3832 274.548V286.614C75.3832 287.895 75.4491 288.771 75.581 289.242C75.6186 289.318 75.7788 289.412 76.0613 289.525C76.3628 289.619 76.683 289.704 77.0221 289.779C77.3612 289.836 77.5873 289.864 77.7003 289.864C77.7568 289.864 77.7851 289.977 77.7851 290.203C77.8039 290.429 77.7945 290.589 77.7568 290.683C76.8149 290.646 76.0708 290.617 75.5244 290.599C74.997 290.561 74.6579 290.542 74.5072 290.542L71.2575 290.683C71.201 290.627 71.1727 290.486 71.1727 290.26C71.1727 289.996 71.201 289.864 71.2575 289.864C71.4459 289.864 71.7096 289.836 72.0487 289.779C72.3878 289.704 72.7081 289.619 73.0095 289.525C73.3109 289.412 73.4805 289.299 73.5181 289.186C73.7065 288.734 73.8007 287.848 73.8007 286.53V275.424C73.8007 274.463 73.7348 273.757 73.6029 273.305C73.5652 273.192 73.3957 273.098 73.0943 273.022C72.8117 272.928 72.5009 272.853 72.1618 272.796C71.8227 272.74 71.5589 272.711 71.3705 272.711C71.2952 272.711 71.2575 272.589 71.2575 272.344C71.2575 272.118 71.2952 271.967 71.3705 271.892C72.1052 271.911 72.7081 271.93 73.179 271.948C73.6688 271.948 74.0268 271.948 74.2528 271.948C74.7426 271.948 75.1759 271.948 75.5527 271.948C75.9295 271.93 76.2497 271.911 76.5135 271.892C76.8714 272.532 77.8416 274.011 79.424 276.328C81.0253 278.627 83.2483 281.763 86.0929 285.738C86.1494 285.418 86.1777 285.032 86.1777 284.58V275.792C86.1777 274.605 86.1117 273.776 85.9799 273.305C85.9422 273.192 85.7726 273.088 85.4712 272.994C85.1698 272.9 84.8495 272.824 84.5104 272.768C84.1714 272.693 83.917 272.655 83.7475 272.655C83.6721 272.655 83.6345 272.542 83.6345 272.316C83.6345 272.109 83.6721 271.967 83.7475 271.892C83.917 271.892 84.1996 271.911 84.5952 271.948C84.9908 271.967 85.4147 271.996 85.8668 272.033C86.3378 272.052 86.7428 272.061 87.0819 272.061C87.5717 272.061 88.1934 272.033 88.9469 271.977C89.6816 271.92 90.1149 271.892 90.2468 271.892C90.2845 272.043 90.3033 272.184 90.3033 272.316C90.3033 272.542 90.2656 272.655 90.1903 272.655C90.0772 272.655 89.8418 272.693 89.4838 272.768C89.1259 272.843 88.7868 272.928 88.4665 273.022C88.1651 273.116 87.9956 273.211 87.9579 273.305C87.8825 273.606 87.826 273.974 87.7884 274.407C87.7507 274.84 87.7318 275.349 87.7318 275.933V286.671C87.7318 287.839 87.7601 289.157 87.8166 290.627C87.7413 290.702 87.5623 290.74 87.2797 290.74ZM92.2587 290.683C92.1834 290.608 92.1457 290.467 92.1457 290.26C92.1457 289.996 92.1834 289.864 92.2587 289.864C92.4848 289.864 92.7768 289.817 93.1347 289.723C93.4927 289.628 93.7376 289.497 93.8694 289.327C94.0767 289.063 94.2839 288.715 94.4911 288.281C94.7172 287.848 94.9527 287.311 95.1976 286.671L100.114 274.04C100.227 273.757 100.293 273.559 100.312 273.446C100.35 273.333 100.378 273.239 100.397 273.164C100.435 273.069 100.501 272.919 100.595 272.711C100.727 272.448 100.859 272.24 100.99 272.09C101.122 271.939 101.339 271.864 101.64 271.864L101.895 271.948L107.546 286.869C107.716 287.302 107.867 287.688 107.998 288.027C108.149 288.366 108.272 288.658 108.366 288.903C108.441 289.092 108.601 289.261 108.846 289.412C109.11 289.544 109.374 289.657 109.637 289.751C109.92 289.826 110.137 289.864 110.287 289.864C110.363 289.864 110.4 290.043 110.4 290.401C110.4 290.439 110.391 290.486 110.372 290.542C110.372 290.58 110.363 290.627 110.344 290.683C109.402 290.646 108.667 290.617 108.14 290.599C107.631 290.561 107.33 290.542 107.235 290.542L103.957 290.683C103.882 290.608 103.844 290.457 103.844 290.231C103.863 289.986 103.91 289.864 103.986 289.864C104.212 289.864 104.494 289.817 104.833 289.723C105.173 289.628 105.37 289.506 105.427 289.355C105.446 289.28 105.455 289.205 105.455 289.129C105.474 289.054 105.483 288.979 105.483 288.903C105.483 288.658 105.455 288.376 105.399 288.055C105.342 287.716 105.276 287.453 105.201 287.264L103.929 283.76C103.873 283.685 103.816 283.647 103.76 283.647C103.025 283.591 102.309 283.562 101.612 283.562C101.122 283.562 100.576 283.581 99.9731 283.619C99.3891 283.638 98.7392 283.666 98.0233 283.704L97.8821 283.788L96.667 286.897C96.4786 287.368 96.3467 287.763 96.2714 288.084C96.2148 288.404 96.1866 288.658 96.1866 288.847C96.1866 289.11 96.2619 289.299 96.4127 289.412C96.5822 289.544 96.8554 289.657 97.2321 289.751C97.6089 289.826 97.8821 289.864 98.0516 289.864C98.1081 289.864 98.1364 289.977 98.1364 290.203C98.1552 290.429 98.1458 290.589 98.1081 290.683L95.1976 290.542C94.6701 290.504 94.152 290.514 93.6434 290.57C93.1536 290.608 92.692 290.646 92.2587 290.683ZM100.623 282.206C101.471 282.206 102.328 282.178 103.195 282.121L103.279 281.98L100.99 275.735L98.5602 282.037C98.5602 282.112 98.5791 282.15 98.6168 282.15C99.1066 282.168 99.5116 282.187 99.8319 282.206C100.171 282.206 100.435 282.206 100.623 282.206ZM115.944 290.683C115.869 290.608 115.831 290.467 115.831 290.26C115.831 289.996 115.869 289.864 115.944 289.864C116.114 289.864 116.34 289.845 116.623 289.807C116.905 289.751 117.169 289.676 117.414 289.581C117.659 289.487 117.8 289.393 117.838 289.299C117.913 289.035 117.96 288.696 117.979 288.281C118.017 287.867 118.036 287.368 118.036 286.784V276.554C118.036 274.916 117.951 273.945 117.781 273.644C117.649 273.361 116.632 273.22 114.729 273.22C114.014 273.22 113.458 273.286 113.062 273.418C112.667 273.531 112.365 273.766 112.158 274.124C111.951 274.482 111.753 275.019 111.565 275.735C111.527 275.829 111.433 275.876 111.282 275.876C110.962 275.876 110.736 275.81 110.604 275.678L111.141 271.638C111.555 271.732 111.922 271.807 112.243 271.864C112.563 271.92 112.846 271.948 113.09 271.948C114.447 271.948 115.643 271.967 116.679 272.005C117.715 272.043 118.582 272.061 119.279 272.061C120.729 272.061 121.973 272.043 123.009 272.005C124.064 271.967 124.893 271.948 125.496 271.948C125.741 271.948 126.023 271.92 126.343 271.864C126.664 271.807 127.031 271.732 127.445 271.638L127.982 275.678C127.85 275.81 127.624 275.876 127.304 275.876C127.153 275.876 127.059 275.829 127.022 275.735C126.852 275.019 126.654 274.482 126.428 274.124C126.221 273.766 125.92 273.531 125.524 273.418C125.128 273.286 124.573 273.22 123.857 273.22C121.879 273.22 120.843 273.361 120.748 273.644C120.579 274.228 120.494 275.17 120.494 276.47V286.671C120.494 287.763 120.579 288.639 120.748 289.299C120.786 289.374 120.927 289.459 121.172 289.553C121.417 289.647 121.681 289.723 121.963 289.779C122.246 289.836 122.444 289.864 122.557 289.864C122.632 289.864 122.67 290.005 122.67 290.288C122.67 290.401 122.651 290.533 122.613 290.683C121.671 290.646 120.927 290.617 120.381 290.599C119.835 290.561 119.486 290.542 119.335 290.542L115.944 290.683ZM140.28 290.599C138.038 290.599 136.315 289.939 135.109 288.621C133.903 287.302 133.3 285.173 133.3 282.234V275.82C133.3 275.236 133.282 274.737 133.244 274.322C133.225 273.889 133.178 273.55 133.103 273.305C133.065 273.192 132.924 273.098 132.679 273.022C132.434 272.928 132.17 272.853 131.888 272.796C131.605 272.74 131.379 272.711 131.209 272.711C131.134 272.711 131.096 272.589 131.096 272.344C131.096 272.118 131.134 271.967 131.209 271.892L134.6 272.033C134.751 272.033 135.1 272.024 135.646 272.005C136.192 271.967 136.936 271.93 137.878 271.892C137.916 272.043 137.935 272.175 137.935 272.288C137.935 272.57 137.897 272.711 137.822 272.711C137.709 272.711 137.511 272.749 137.228 272.824C136.946 272.881 136.682 272.956 136.437 273.051C136.192 273.126 136.051 273.211 136.013 273.305C135.844 273.945 135.759 274.821 135.759 275.933V282.234C135.759 284.363 136.211 286.059 137.115 287.321C138.02 288.583 139.301 289.214 140.958 289.214C144.18 289.214 145.79 287.095 145.79 282.856V275.792C145.79 274.605 145.724 273.776 145.593 273.305C145.555 273.192 145.385 273.088 145.084 272.994C144.783 272.9 144.462 272.824 144.123 272.768C143.784 272.693 143.53 272.655 143.36 272.655C143.285 272.655 143.247 272.542 143.247 272.316C143.247 272.109 143.285 271.967 143.36 271.892C143.53 271.892 143.812 271.911 144.208 271.948C144.604 271.967 145.027 271.996 145.48 272.033C145.951 272.052 146.356 272.061 146.695 272.061C147.184 272.061 147.806 272.033 148.56 271.977C149.294 271.92 149.728 271.892 149.86 271.892C149.897 272.043 149.916 272.184 149.916 272.316C149.916 272.542 149.878 272.655 149.803 272.655C149.69 272.655 149.455 272.693 149.097 272.768C148.739 272.843 148.4 272.928 148.079 273.022C147.778 273.116 147.608 273.211 147.571 273.305C147.495 273.606 147.439 273.974 147.401 274.407C147.363 274.84 147.345 275.349 147.345 275.933V282.799C147.345 284.74 147.071 286.285 146.525 287.434C145.979 288.564 145.178 289.374 144.123 289.864C143.068 290.354 141.787 290.599 140.28 290.599ZM170.013 290.74C167.394 290.74 165.106 289.384 163.146 286.671C162.996 286.464 162.798 286.181 162.553 285.823C162.327 285.465 161.903 284.834 161.281 283.93C160.98 283.496 160.707 283.139 160.462 282.856C160.236 282.555 159.963 282.329 159.642 282.178C159.341 282.027 158.927 281.952 158.399 281.952C158.192 281.952 158.022 281.98 157.89 282.037C157.777 282.093 157.721 282.225 157.721 282.432V286.586C157.721 287.829 157.796 288.649 157.947 289.044C158.022 289.195 158.201 289.336 158.484 289.468C158.785 289.6 159.106 289.704 159.445 289.779C159.784 289.836 160.029 289.864 160.179 289.864C160.255 289.864 160.292 289.996 160.292 290.26C160.292 290.391 160.274 290.533 160.236 290.683C159.294 290.646 158.512 290.608 157.89 290.57C157.288 290.533 156.845 290.523 156.562 290.542L153.115 290.683C153.058 290.627 153.03 290.457 153.03 290.175C153.03 289.93 153.058 289.807 153.115 289.807C153.303 289.807 153.529 289.779 153.793 289.723C154.076 289.666 154.339 289.6 154.584 289.525C154.848 289.431 155.008 289.327 155.065 289.214C155.197 289.007 155.262 288.121 155.262 286.558V275.876C155.262 275.33 155.244 274.85 155.206 274.435C155.187 274.021 155.14 273.691 155.065 273.446C155.027 273.333 154.876 273.229 154.613 273.135C154.368 273.041 154.094 272.966 153.793 272.909C153.51 272.853 153.284 272.824 153.115 272.824C153.039 272.824 153.002 272.711 153.002 272.485C153.002 272.24 153.039 272.08 153.115 272.005L156.506 272.061C157.052 272.08 157.721 272.071 158.512 272.033C159.303 271.977 159.963 271.948 160.49 271.948C161.507 271.948 162.478 272.146 163.401 272.542C164.343 272.937 165.106 273.521 165.69 274.294C166.292 275.066 166.594 276.008 166.594 277.12C166.594 277.911 166.292 278.74 165.69 279.606C165.106 280.473 164.305 281.142 163.288 281.613C163.099 281.688 163.043 281.782 163.118 281.895C164.041 283.854 165.124 285.512 166.368 286.869C168.176 288.847 169.646 289.836 170.776 289.836C170.833 289.949 170.861 290.081 170.861 290.231C170.861 290.401 170.833 290.542 170.776 290.655C170.588 290.712 170.333 290.74 170.013 290.74ZM160.179 280.737H160.886C161.338 280.737 161.799 280.586 162.27 280.285C162.76 279.983 163.165 279.559 163.485 279.013C163.825 278.467 163.994 277.836 163.994 277.12C163.994 274.501 162.675 273.192 160.038 273.192C159.171 273.192 158.512 273.258 158.06 273.39C157.89 273.427 157.787 273.738 157.749 274.322C157.73 274.887 157.721 275.613 157.721 276.498V279.917C157.721 280.463 158.54 280.737 160.179 280.737ZM186.013 290.712C185.542 290.712 184.92 290.702 184.148 290.683C183.394 290.683 182.499 290.674 181.463 290.655C180.427 290.636 179.485 290.617 178.637 290.599C177.79 290.599 177.036 290.599 176.377 290.599L172.958 290.683C172.901 290.627 172.873 290.476 172.873 290.231C172.873 289.986 172.901 289.864 172.958 289.864C173.127 289.864 173.353 289.836 173.636 289.779C173.918 289.704 174.182 289.619 174.427 289.525C174.691 289.431 174.851 289.327 174.907 289.214C175.039 289.007 175.105 288.121 175.105 286.558V275.876C175.105 275.33 175.086 274.85 175.049 274.435C175.03 274.021 174.983 273.691 174.907 273.446C174.87 273.333 174.719 273.229 174.455 273.135C174.21 273.041 173.937 272.966 173.636 272.909C173.353 272.853 173.127 272.824 172.958 272.824C172.882 272.824 172.844 272.711 172.844 272.485C172.844 272.24 172.882 272.08 172.958 272.005C173.447 272.024 173.965 272.043 174.512 272.061C175.077 272.061 175.68 272.061 176.32 272.061C176.753 272.061 177.337 272.052 178.072 272.033C178.807 272.014 179.692 271.986 180.728 271.948C181.783 271.911 182.697 271.883 183.469 271.864C184.261 271.845 184.92 271.835 185.447 271.835C185.485 272.099 185.542 272.419 185.617 272.796C185.692 273.154 185.787 273.55 185.9 273.983C185.994 274.435 186.069 274.802 186.126 275.085C186.201 275.368 186.248 275.565 186.267 275.678C186.173 275.773 186.003 275.82 185.758 275.82C185.513 275.82 185.382 275.754 185.363 275.622C185.08 274.586 184.685 273.926 184.176 273.644C183.667 273.343 182.97 273.192 182.085 273.192H180.192C178.553 273.192 177.724 273.314 177.705 273.559C177.667 273.785 177.629 274.096 177.592 274.492C177.573 274.887 177.564 275.368 177.564 275.933V280.454C177.564 280.567 177.969 280.624 178.779 280.624H180.276C180.917 280.624 181.35 280.624 181.576 280.624C181.802 280.605 181.962 280.577 182.057 280.539C182.17 280.501 182.377 280.445 182.678 280.369C182.867 280.332 183.008 280.115 183.102 279.719C183.215 279.305 183.309 278.966 183.385 278.702C183.404 278.57 183.545 278.504 183.809 278.504C184.035 278.504 184.195 278.551 184.289 278.646V283.986C184.214 284.062 184.063 284.099 183.837 284.099C183.592 284.099 183.441 284.024 183.385 283.873C183.309 283.61 183.243 283.383 183.187 283.195C183.13 283.007 183.083 282.847 183.046 282.715C182.951 282.451 182.876 282.3 182.82 282.263C182.782 282.225 182.706 282.168 182.593 282.093C182.33 281.942 181.331 281.867 179.598 281.867C178.242 281.867 177.564 281.952 177.564 282.121V286.501C177.564 287.726 177.648 288.583 177.818 289.073C177.874 289.261 178.515 289.355 179.739 289.355H181.096C182.829 289.355 184.016 289.195 184.656 288.875C184.939 288.724 185.25 288.395 185.589 287.886C185.947 287.358 186.229 286.737 186.437 286.021C186.474 285.908 186.606 285.851 186.832 285.851C187.19 285.851 187.426 285.908 187.539 286.021C187.482 286.172 187.388 286.407 187.256 286.727C187.143 287.029 187.03 287.34 186.917 287.66C186.804 287.98 186.71 288.253 186.634 288.479C186.521 288.818 186.399 289.205 186.267 289.638C186.135 290.071 186.05 290.429 186.013 290.712ZM198.655 290.683C198.599 290.627 198.57 290.476 198.57 290.231C198.57 289.986 198.599 289.864 198.655 289.864C198.825 289.864 199.051 289.836 199.333 289.779C199.616 289.704 199.88 289.619 200.125 289.525C200.388 289.431 200.548 289.327 200.605 289.214C200.737 289.007 200.803 288.121 200.803 286.558V275.876C200.803 275.33 200.784 274.85 200.746 274.435C200.727 274.021 200.68 273.691 200.605 273.446C200.567 273.333 200.417 273.229 200.153 273.135C199.908 273.041 199.635 272.966 199.333 272.909C199.051 272.853 198.825 272.824 198.655 272.824C198.58 272.824 198.542 272.711 198.542 272.485C198.542 272.24 198.58 272.08 198.655 272.005C199.145 272.024 199.663 272.043 200.209 272.061C200.775 272.061 201.377 272.061 202.018 272.061L204.392 272.033H206.002C206.247 272.033 206.492 272.043 206.737 272.061C207.001 272.08 207.255 272.109 207.5 272.146C208.253 272.278 208.96 272.532 209.619 272.909C210.297 273.267 210.844 273.757 211.258 274.379C211.692 275 211.908 275.763 211.908 276.668C211.908 277.327 211.692 277.958 211.258 278.561C210.825 279.145 210.42 279.55 210.043 279.776C209.685 280.002 209.374 280.162 209.111 280.256C208.96 280.313 208.913 280.369 208.969 280.426C209.346 280.482 209.77 280.652 210.241 280.934C210.712 281.217 211.164 281.584 211.597 282.037C212.031 282.47 212.389 282.969 212.671 283.534C212.973 284.099 213.123 284.693 213.123 285.314C213.123 286.388 212.822 287.321 212.219 288.112C211.635 288.903 210.806 289.515 209.732 289.949C208.658 290.382 207.396 290.599 205.946 290.599H202.074L198.655 290.683ZM205.126 280.058C205.729 280.058 206.257 280.03 206.709 279.974C207.481 279.898 208.122 279.635 208.63 279.182C209.158 278.711 209.421 278.09 209.421 277.317C209.421 276.018 209.092 275.01 208.432 274.294C207.792 273.559 206.831 273.192 205.55 273.192C204.665 273.192 203.996 273.258 203.544 273.39C203.431 273.408 203.374 273.493 203.374 273.644L203.261 276.498V279.861C203.261 279.993 203.883 280.058 205.126 280.058ZM205.239 289.327C205.71 289.327 206.172 289.289 206.624 289.214C207.095 289.139 207.651 288.988 208.291 288.762C208.932 288.555 209.45 288.187 209.845 287.66C210.241 287.113 210.439 286.435 210.439 285.625C210.439 284.815 210.26 284.08 209.902 283.421C209.544 282.762 208.998 282.234 208.263 281.839C207.528 281.443 206.577 281.245 205.409 281.245C205.202 281.245 204.928 281.255 204.589 281.274C204.25 281.292 203.845 281.321 203.374 281.358C203.299 281.566 203.261 281.876 203.261 282.291V286.416C203.261 287.848 203.412 288.687 203.713 288.931C204.015 289.195 204.523 289.327 205.239 289.327ZM216.379 290.683C216.303 290.608 216.266 290.467 216.266 290.26C216.266 289.996 216.303 289.864 216.379 289.864C216.605 289.864 216.897 289.817 217.255 289.723C217.612 289.628 217.857 289.497 217.989 289.327C218.196 289.063 218.404 288.715 218.611 288.281C218.837 287.848 219.072 287.311 219.317 286.671L224.234 274.04C224.347 273.757 224.413 273.559 224.432 273.446C224.47 273.333 224.498 273.239 224.517 273.164C224.554 273.069 224.62 272.919 224.715 272.711C224.846 272.448 224.978 272.24 225.11 272.09C225.242 271.939 225.459 271.864 225.76 271.864L226.014 271.948L231.666 286.869C231.836 287.302 231.986 287.688 232.118 288.027C232.269 288.366 232.391 288.658 232.486 288.903C232.561 289.092 232.721 289.261 232.966 289.412C233.23 289.544 233.493 289.657 233.757 289.751C234.04 289.826 234.256 289.864 234.407 289.864C234.482 289.864 234.52 290.043 234.52 290.401C234.52 290.439 234.511 290.486 234.492 290.542C234.492 290.58 234.482 290.627 234.464 290.683C233.522 290.646 232.787 290.617 232.259 290.599C231.751 290.561 231.449 290.542 231.355 290.542L228.077 290.683C228.002 290.608 227.964 290.457 227.964 290.231C227.983 289.986 228.03 289.864 228.106 289.864C228.332 289.864 228.614 289.817 228.953 289.723C229.292 289.628 229.49 289.506 229.547 289.355C229.566 289.28 229.575 289.205 229.575 289.129C229.594 289.054 229.603 288.979 229.603 288.903C229.603 288.658 229.575 288.376 229.518 288.055C229.462 287.716 229.396 287.453 229.321 287.264L228.049 283.76C227.993 283.685 227.936 283.647 227.879 283.647C227.145 283.591 226.429 283.562 225.732 283.562C225.242 283.562 224.696 283.581 224.093 283.619C223.509 283.638 222.859 283.666 222.143 283.704L222.002 283.788L220.787 286.897C220.598 287.368 220.467 287.763 220.391 288.084C220.335 288.404 220.306 288.658 220.306 288.847C220.306 289.11 220.382 289.299 220.532 289.412C220.702 289.544 220.975 289.657 221.352 289.751C221.729 289.826 222.002 289.864 222.171 289.864C222.228 289.864 222.256 289.977 222.256 290.203C222.275 290.429 222.266 290.589 222.228 290.683L219.317 290.542C218.79 290.504 218.272 290.514 217.763 290.57C217.273 290.608 216.812 290.646 216.379 290.683ZM224.743 282.206C225.591 282.206 226.448 282.178 227.314 282.121L227.399 281.98L225.11 275.735L222.68 282.037C222.68 282.112 222.699 282.15 222.737 282.15C223.226 282.168 223.631 282.187 223.952 282.206C224.291 282.206 224.554 282.206 224.743 282.206ZM253.148 290.74C252.846 290.74 252.535 290.523 252.215 290.09L241.251 274.548V286.614C241.251 287.895 241.317 288.771 241.449 289.242C241.487 289.318 241.647 289.412 241.929 289.525C242.231 289.619 242.551 289.704 242.89 289.779C243.229 289.836 243.455 289.864 243.568 289.864C243.625 289.864 243.653 289.977 243.653 290.203C243.672 290.429 243.662 290.589 243.625 290.683C242.683 290.646 241.939 290.617 241.392 290.599C240.865 290.561 240.526 290.542 240.375 290.542L237.125 290.683C237.069 290.627 237.041 290.486 237.041 290.26C237.041 289.996 237.069 289.864 237.125 289.864C237.314 289.864 237.578 289.836 237.917 289.779C238.256 289.704 238.576 289.619 238.877 289.525C239.179 289.412 239.348 289.299 239.386 289.186C239.574 288.734 239.669 287.848 239.669 286.53V275.424C239.669 274.463 239.603 273.757 239.471 273.305C239.433 273.192 239.264 273.098 238.962 273.022C238.68 272.928 238.369 272.853 238.03 272.796C237.691 272.74 237.427 272.711 237.238 272.711C237.163 272.711 237.125 272.589 237.125 272.344C237.125 272.118 237.163 271.967 237.238 271.892C237.973 271.911 238.576 271.93 239.047 271.948C239.537 271.948 239.895 271.948 240.121 271.948C240.611 271.948 241.044 271.948 241.421 271.948C241.797 271.93 242.118 271.911 242.381 271.892C242.739 272.532 243.71 274.011 245.292 276.328C246.893 278.627 249.116 281.763 251.961 285.738C252.017 285.418 252.046 285.032 252.046 284.58V275.792C252.046 274.605 251.98 273.776 251.848 273.305C251.81 273.192 251.641 273.088 251.339 272.994C251.038 272.9 250.717 272.824 250.378 272.768C250.039 272.693 249.785 272.655 249.615 272.655C249.54 272.655 249.502 272.542 249.502 272.316C249.502 272.109 249.54 271.967 249.615 271.892C249.785 271.892 250.068 271.911 250.463 271.948C250.859 271.967 251.283 271.996 251.735 272.033C252.206 272.052 252.611 272.061 252.95 272.061C253.44 272.061 254.061 272.033 254.815 271.977C255.55 271.92 255.983 271.892 256.115 271.892C256.152 272.043 256.171 272.184 256.171 272.316C256.171 272.542 256.134 272.655 256.058 272.655C255.945 272.655 255.71 272.693 255.352 272.768C254.994 272.843 254.655 272.928 254.334 273.022C254.033 273.116 253.864 273.211 253.826 273.305C253.75 273.606 253.694 273.974 253.656 274.407C253.619 274.84 253.6 275.349 253.6 275.933V286.671C253.6 287.839 253.628 289.157 253.685 290.627C253.609 290.702 253.43 290.74 253.148 290.74ZM259.568 290.683C259.492 290.608 259.455 290.467 259.455 290.26C259.455 289.996 259.492 289.864 259.568 289.864C259.737 289.864 259.963 289.845 260.246 289.807C260.529 289.751 260.792 289.676 261.037 289.581C261.282 289.487 261.423 289.393 261.461 289.299C261.536 289.035 261.584 288.696 261.602 288.281C261.64 287.867 261.659 287.368 261.659 286.784V275.82C261.659 275.236 261.64 274.737 261.602 274.322C261.584 273.889 261.536 273.55 261.461 273.305C261.423 273.192 261.282 273.098 261.037 273.022C260.792 272.928 260.529 272.853 260.246 272.796C259.963 272.74 259.737 272.711 259.568 272.711C259.492 272.711 259.455 272.589 259.455 272.344C259.455 272.118 259.492 271.967 259.568 271.892C259.737 271.892 260.02 271.911 260.416 271.948C260.83 271.967 261.273 271.996 261.744 272.033C262.215 272.052 262.62 272.061 262.959 272.061C263.562 272.061 264.164 272.043 264.767 272.005C265.37 271.948 265.86 271.911 266.237 271.892C266.274 271.967 266.284 272.127 266.265 272.372C266.265 272.598 266.237 272.711 266.18 272.711C266.067 272.711 265.869 272.749 265.587 272.824C265.304 272.881 265.04 272.956 264.796 273.051C264.551 273.126 264.409 273.211 264.372 273.305C264.202 273.945 264.117 274.821 264.117 275.933V280.539L264.315 280.708H264.513C265.116 280.708 265.662 280.435 266.152 279.889C267.263 278.664 268.215 277.572 269.006 276.611C269.816 275.65 270.485 274.831 271.012 274.153C271.464 273.606 271.69 273.248 271.69 273.079C271.69 272.759 271.154 272.598 270.08 272.598C270.004 272.598 269.967 272.514 269.967 272.344C269.967 272.25 269.967 272.175 269.967 272.118C269.986 272.043 270.004 271.967 270.023 271.892C270.57 271.93 271.116 271.967 271.662 272.005C272.209 272.043 272.67 272.061 273.047 272.061C273.367 272.061 273.716 272.052 274.092 272.033C274.488 271.996 274.846 271.967 275.166 271.948C275.505 271.911 275.75 271.892 275.901 271.892C275.939 271.967 275.948 272.109 275.929 272.316C275.929 272.504 275.901 272.598 275.844 272.598C274.714 272.73 273.847 273.126 273.245 273.785L267.565 280.398C267.414 280.567 267.48 280.821 267.763 281.161L274.573 288.649C274.95 289.044 275.43 289.346 276.014 289.553C276.598 289.76 277.116 289.864 277.568 289.864C277.662 289.864 277.709 290.033 277.709 290.373C277.709 290.467 277.691 290.57 277.653 290.683C276.711 290.646 275.948 290.617 275.364 290.599C274.78 290.561 274.375 290.542 274.149 290.542C273.358 290.542 272.642 290.561 272.001 290.599C271.38 290.617 270.824 290.646 270.334 290.683C270.259 290.608 270.221 290.448 270.221 290.203C270.221 289.977 270.259 289.864 270.334 289.864C270.56 289.864 270.814 289.826 271.097 289.751C271.398 289.676 271.549 289.563 271.549 289.412C271.549 288.809 269.411 286.313 265.135 281.923C265.059 281.848 264.786 281.81 264.315 281.81C264.183 281.81 264.117 281.886 264.117 282.037V286.671C264.117 287.763 264.202 288.639 264.372 289.299C264.409 289.374 264.551 289.459 264.796 289.553C265.04 289.647 265.304 289.723 265.587 289.779C265.869 289.836 266.067 289.864 266.18 289.864C266.237 289.864 266.265 289.977 266.265 290.203C266.284 290.429 266.274 290.589 266.237 290.683C265.295 290.646 264.551 290.617 264.004 290.599C263.458 290.561 263.109 290.542 262.959 290.542L259.568 290.683Z" fill="#09101C"/>
<path d="M1.79688 253.616H299.33" stroke="#EBC80C" stroke-width="3"/>
</svg>
